<?xml version="1.0" encoding="utf-8"?>
<!-- Generator: Adobe Illustrator 26.1.0, SVG Export Plug-In . SVG Version: 6.00 Build 0)  -->
<svg version="1.1" id="Layer_1" xmlns="http://www.w3.org/2000/svg" xmlns:xlink="http://www.w3.org/1999/xlink" x="0px" y="0px"
	 viewBox="0 0 594.5 204.1" style="enable-background:new 0 0 594.5 204.1;" xml:space="preserve">
<style type="text/css">
	.st0{fill:#3D3B29;}
	.st1{fill:#FAD04B;}
</style>
<g>
	<path class="st0" d="M195.2,124.8H24.5c-2.8,0-5,2.2-5,5s2.2,5,5,5h170.7V124.8z"/>
	<path class="st0" d="M561.4,124.8H259.9v10h301.5c2.8,0,5-2.2,5-5S564.2,124.8,561.4,124.8z"/>
</g>
<g>
	<path class="st1" d="M448,43.2c-1.9-0.2-5.6,0.8-14.9,5.6c0,0-16-4.1-72.1,31.9c-9,6.2-57.4,29.4-114.9,11.7
		c-0.7,6.5-2.8,12.9-6.2,18.8c-1.1,1.9-2.3,3.6-3.6,5.3c-7.8,9.8-19.1,16.1-32,17.4c-2.3,0.2-4.3-1.4-4.5-3.7
		c-0.2-2.3,1.4-4.3,3.6-4.5c12.4-1.3,23.1-8.1,29.4-18.8c3.2-5.4,4.9-11.3,5.3-17.3c-2.9-1.1-5.8-2.3-8.8-3.6
		c-0.4,1.3-1,2.6-1.9,3.7c-3.7,4.7-10.7,5.5-15.5,1.8c-1.3-1-1.5-2.9-0.5-4.2c1-1.3,2.9-1.5,4.2-0.5c2.2,1.7,5.3,1.3,7-0.8
		c0.6-0.8,1-1.7,1-2.6c-3-1.5-6-3-9-4.7c-8.7-5-21.3-25.5-41.8-24.6c0,0-15.5-15-23.1-43c-0.9-4.1-15.8-2.1-20.5,7.9
		c-1,2.5,4,7.5,7.4,12.1c3.4,4.7,12.5,22,15.1,32.8c-12.2,18.7,10.5,100.2,137.1,103.8c104.8,3,157.9-81.2,159.8-94.1
		c1.9-12.9,8.2-14.7,8.1-19C456.7,51.9,449.7,43.4,448,43.2z M192.2,111.7c1-1.3,2.9-1.5,4.2-0.5c2.2,1.7,5.3,1.3,7-0.8
		c1.7-2.1,1.3-5.3-0.8-7c-1.3-1-1.5-2.9-0.5-4.2c1-1.3,2.9-1.5,4.2-0.5c4.8,3.8,5.6,10.7,1.9,15.4c-3.7,4.7-10.7,5.5-15.5,1.8
		C191.4,114.9,191.1,113,192.2,111.7z"/>
</g>
<g id="a">
</g>
<path class="st1" d="M175.7,173.2c0,10.4-5.9,17-13.6,20.1c-8.2,3.3-17.6,2.2-23.5-6c-4,9.5-12.8,12.9-20.6,12.9
	c-12.4,0-25-8.2-25-24v-37.2h82.6L175.7,173.2L175.7,173.2z M104.6,150.7v25.4c0,8,6.7,12.1,13.3,12.1s13.1-4,13.1-12.1v-25.4
	C131,150.7,104.6,150.7,104.6,150.7z M142.8,150.7v22.2c0,13,21.5,13.3,21.5,0.2v-22.5H142.8L142.8,150.7z"/>
<path class="st1" d="M492.1,173.2c0,10.4-5.9,17-13.6,20.1c-8.2,3.3-17.6,2.2-23.5-6c-4,9.5-12.8,12.9-20.6,12.9
	c-12.4,0-25-8.2-25-24v-37.2h82.6V173.2z M421.1,150.7v25.4c0,8,6.7,12.1,13.3,12.1c6.5,0,13.1-4,13.1-12.1v-25.4
	C447.4,150.7,421.1,150.7,421.1,150.7z M459.2,150.7v22.2c0,13,21.5,13.3,21.5,0.2v-22.5H459.2z"/>
</svg>
