<?xml version="1.0" encoding="UTF-8"?><svg xmlns="http://www.w3.org/2000/svg" viewBox="0 0 686.97 141.62"><defs><style>.d{fill:#333;}.e{fill:#168754;}</style></defs><g id="a"/><g id="b"><g id="c"><g><path class="e" d="M575.93,32.02H52.88c-.93,0-1.85-.14-2.74-.42L6.46,17.99C1.61,16.48-1.09,11.32,.42,6.47,1.94,1.62,7.09-1.1,11.94,.43L54.28,13.62H574.73L625.1,.31c4.91-1.29,9.94,1.64,11.24,6.55s-1.63,9.94-6.55,11.24l-51.53,13.62c-.77,.2-1.56,.31-2.35,.31Z"/><g><path class="d" d="M222.08,78.88c0-31.83,47.58-31.74,47.58,0s-47.58,31.59-47.58,0Zm34.55,0c0-15.17-21.52-15.09-21.52,0s21.52,15.01,21.52,0Z"/><path class="d" d="M308.25,61.15v-4.62h12.95v44.61h-12.95v-4.46c-3.05,3.8-7.42,5.03-11.71,5.03-14.19,0-21.52-11.38-21.44-23.66,.17-12.2,7.18-22.27,21.61-22.27,4.37,0,8.66,1.65,11.54,5.36Zm0,17.4c0-5.94-4.53-10.81-10.14-10.81-6.6,0-9.89,5.19-9.98,10.64-.08,5.36,3.3,10.88,9.98,10.88,5.61,0,10.14-4.78,10.14-10.72Z"/><path class="d" d="M343.1,101.15h-12.95V56.54h11.71l.5,2.97c2.88-2.72,6.1-3.87,9.73-3.87,1.57,0,3.3,.25,5.03,.66l-.17,12.2c-1.32-.41-2.88-.66-4.37-.66-4.7,.08-9.48,2.55-9.48,8.58v24.74Z"/><path class="d" d="M395.09,60.58v-17.56h12.95v58.13h-12.95v-4.46c-3.05,3.8-7.42,5.03-11.71,5.03-14.18,0-21.52-11.38-21.43-23.66,.16-12.2,7.17-22.27,21.6-22.27,4.37,0,8.58,1.4,11.54,4.79Zm0,17.98c0-5.94-4.53-10.81-10.14-10.81-6.6,0-9.89,5.19-9.98,10.64-.08,5.36,3.3,10.88,9.98,10.88,5.61,0,10.14-4.78,10.14-10.72Z"/></g><path class="e" d="M213.61,98.3c0,16.72-9.5,27.36-21.85,32.3-13.11,5.32-28.31,3.61-37.81-9.69-6.46,15.2-20.52,20.71-33.06,20.71-19.95,0-40.09-13.11-40.09-38.57V43.01H213.61v55.29ZM99.42,62.01v41.04c0,12.92,10.83,19.38,21.28,19.38s21.09-6.46,21.09-19.38V62.01h-42.37Zm61.37,0v35.91c0,20.9,34.57,21.28,34.57,.38V62.01h-34.57Z"/><path class="e" d="M551.37,98.3c0,16.72-9.5,27.36-21.85,32.3-13.11,5.32-28.31,3.61-37.81-9.69-6.46,15.2-20.52,20.71-33.06,20.71-19.95,0-40.09-13.11-40.09-38.57V43.01h132.81v55.29Zm-114.19-36.29v41.04c0,12.92,10.83,19.38,21.28,19.38s21.09-6.46,21.09-19.38V62.01h-42.37Zm61.37,0v35.91c0,20.9,34.57,21.28,34.57,.38V62.01h-34.57Z"/><g><path class="d" d="M589.28,88.53v-4.53c-3.13,4.04-7.83,5.19-12.62,5.11-12.7-.08-16.16-9.57-16.08-20.61v-24.57h13.11v24.49c0,12.86,14.92,11.13,14.92-.25v-24.25h13.77v44.61h-13.11Z"/><path class="d" d="M623.59,88.53h-12.95V43.92h11.71l.5,2.97c2.88-2.72,6.1-3.87,9.73-3.87,1.57,0,3.3,.25,5.03,.66l-.17,12.2c-1.32-.41-2.88-.66-4.37-.66-4.7,.08-9.48,2.55-9.48,8.58v24.74Z"/><path class="d" d="M640.96,66.59c0-12.86,7.26-23.25,21.44-23.17,4.29,0,8.66,1.15,11.63,4.95v-4.46h12.94v42.06c0,16.49-11.38,23.17-22.67,23.17s-22.02-6.68-22.02-17.49h13.61c0,2.72,3.87,4.95,7.99,4.87,4.7-.08,9.73-2.64,10.15-10.47v-2.31c-2.89,3.38-7.09,4.62-11.54,4.62-14.35,0-21.52-9.48-21.52-21.77Zm13.03,.17c.08,6.27,5.03,9.32,9.98,9.32,5.03-.08,10.06-3.3,10.06-9.49s-4.53-10.8-10.06-10.8c-6.76,0-10.06,5.61-9.98,10.97Z"/></g></g></g></g></svg>